<svg xmlns="http://www.w3.org/2000/svg" width="24" height="24" viewBox="0 0 24 24" fill="none">
  <path fill-rule="evenodd" clip-rule="evenodd" d="M23.895 12.2728C23.895 11.4219 23.8186 10.6037 23.6768 9.81824H12.375V14.4601H18.8332C18.555 15.9601 17.7095 17.231 16.4386 18.0819V21.0928H20.3168C22.5859 19.0037 23.895 15.9273 23.895 12.2728Z" fill="#4285F4"/>
  <path fill-rule="evenodd" clip-rule="evenodd" d="M12.375 24C15.615 24 18.3314 22.9255 20.3168 21.0928L16.4386 18.0818C15.3641 18.8018 13.9896 19.2273 12.375 19.2273C9.24955 19.2273 6.6041 17.1164 5.66046 14.28H1.65137V17.3891C3.62591 21.3109 7.6841 24 12.375 24Z" fill="#34A853"/>
  <path fill-rule="evenodd" clip-rule="evenodd" d="M5.66046 14.2801C5.42046 13.5601 5.28409 12.791 5.28409 12.0001C5.28409 11.2091 5.42046 10.4401 5.66046 9.72005V6.61096H1.65136C0.838636 8.23096 0.375 10.0637 0.375 12.0001C0.375 13.9364 0.838636 15.7691 1.65136 17.3891L5.66046 14.2801Z" fill="#FBBC05"/>
  <path fill-rule="evenodd" clip-rule="evenodd" d="M12.375 4.77273C14.1368 4.77273 15.7186 5.37818 16.9623 6.56728L20.4041 3.12546C18.3259 1.18909 15.6096 0 12.375 0C7.6841 0 3.62591 2.68909 1.65137 6.61091L5.66046 9.72001C6.6041 6.88364 9.24955 4.77273 12.375 4.77273Z" fill="#EA4335"/>
</svg>